<svg width="100" height="100" viewBox="0 0 100 100" fill="none" xmlns="http://www.w3.org/2000/svg">
<path d="M53.6562 36C45.2188 36 37.8125 41.1562 33.6875 45.5625L25.5312 39.375C24.4062 38.5312 22.7188 39.4688 23 40.7812L25.25 51L23 61.3125C22.7188 62.625 24.4062 63.5625 25.5312 62.7188L33.6875 56.5312C37.8125 60.9375 45.2188 66 53.6562 66C66.5 66 77 54 77 51C77 48 66.5 36 53.6562 36ZM61.8125 53.25C60.5938 53.25 59.5625 52.3125 59.5625 51C59.5625 49.7812 60.5938 48.75 61.8125 48.75C63.0312 48.75 64.0625 49.7812 64.0625 51C64.0625 52.3125 63.0312 53.25 61.8125 53.25Z" fill="#BD5050"/>
</svg>
