<svg width="150" height="150" viewBox="0 0 150 150" fill="none" xmlns="http://www.w3.org/2000/svg">
<path d="M79.25 67C76.75 67 65.875 67.25 59 77.75V67C59 60.5 53.5 55 47 55C44.75 55 43 56.875 43 59C43 61.25 44.75 63 47 63C49.125 63 51 64.875 51 67V99C51 103.5 54.5 107 59 107H81C82 107 83 106.125 83 105V103C83 100.875 81.125 99 79 99H75L91 87V105C91 106.125 91.875 107 93 107H97C98 107 99 106.125 99 105V79.25C97.625 79.625 96.375 79.875 95 79.875C87.25 79.875 80.75 74.375 79.25 67ZM99 55H91L83 47V63.875C83 70.5 88.25 75.875 95 75.875C101.625 75.875 107 70.5 107 63.875V47L99 55ZM90 65C88.875 65 88 64.125 88 63C88 62 88.875 61 90 61C91 61 92 62 92 63C92 64.125 91 65 90 65ZM100 65C98.875 65 98 64.125 98 63C98 62 98.875 61 100 61C101 61 102 62 102 63C102 64.125 101 65 100 65Z" fill="black"/>
</svg>
